<svg xmlns="http://www.w3.org/2000/svg" xmlns:xlink="http://www.w3.org/1999/xlink" contentStyleType="text/css" data-diagram-type="ACTIVITY" height="1813px" preserveAspectRatio="none" style="width:502px;height:1813px;background:#FFFFFF;" version="1.1" viewBox="0 0 502 1813" width="502px" zoomAndPan="magnify"><?plantuml 1.2026.6?><defs/><g><g class="title" data-source-line="2"><text fill="#000000" font-family="Verdana" font-size="22" font-weight="700" lengthAdjust="spacing" textLength="382.7227" x="58.7969" y="37.1182">Complete Linux Boot Sequence</text></g><ellipse cx="214.3066" cy="67.7373" fill="#FFFFFF" rx="10" ry="10" style="stroke:#000000;stroke-width:1;"/><rect fill="#FFFFFF" height="34.584" rx="12.5" ry="12.5" style="stroke:#000000;stroke-width:1;" width="167.5156" x="130.5488" y="97.7373"/><text fill="#000000" font-family="Verdana" font-size="12" lengthAdjust="spacing" textLength="147.5156" x="140.5488" y="119.8018">1. Power On &amp; Firmware</text><rect fill="#FFFFFF" height="63.752" rx="12.5" ry="12.5" style="stroke:#000000;stroke-width:1;" width="173.9727" x="127.3203" y="152.3213"/><text fill="#000000" font-family="Verdana" font-size="12" lengthAdjust="spacing" textLength="141.3164" x="149.9766" y="174.3857">BIOS/UEFI initialization</text><text fill="#000000" font-family="Verdana" font-size="12" lengthAdjust="spacing" textLength="108.3105" x="149.9766" y="188.9697">Memory detection</text><text fill="#000000" font-family="Verdana" font-size="12" lengthAdjust="spacing" textLength="101.2676" x="149.9766" y="203.5537">PCI enumeration</text><rect fill="#FFFFFF" height="34.584" rx="12.5" ry="12.5" style="stroke:#000000;stroke-width:1;" width="101.2637" x="163.6748" y="236.0732"/><text fill="#000000" font-family="Verdana" font-size="12" lengthAdjust="spacing" textLength="81.2637" x="173.6748" y="258.1377">2. Bootloader</text><rect fill="#FFFFFF" height="78.3359" rx="12.5" ry="12.5" style="stroke:#000000;stroke-width:1;" width="182.1758" x="123.2188" y="290.6572"/><text fill="#000000" font-family="Verdana" font-size="12" lengthAdjust="spacing" textLength="119.6426" x="145.875" y="312.7217">GRUB2 loads kernel</text><text fill="#000000" font-family="Verdana" font-size="12" lengthAdjust="spacing" textLength="138.8145" x="145.875" y="327.3057">Load device tree (.dtb)</text><text fill="#000000" font-family="Verdana" font-size="12" lengthAdjust="spacing" textLength="149.5195" x="145.875" y="341.8896">Load initramfs (optional)</text><text fill="#000000" font-family="Verdana" font-size="12" lengthAdjust="spacing" textLength="131.2383" x="145.875" y="356.4736">Pass boot parameters</text><rect fill="#FFFFFF" height="34.584" rx="12.5" ry="12.5" style="stroke:#000000;stroke-width:1;" width="171.0723" x="128.7705" y="388.9932"/><text fill="#000000" font-family="Verdana" font-size="12" lengthAdjust="spacing" textLength="151.0723" x="138.7705" y="411.0576">3. Kernel Decompression</text><rect fill="#FFFFFF" height="49.168" rx="12.5" ry="12.5" style="stroke:#000000;stroke-width:1;" width="204.6641" x="111.9746" y="443.5771"/><text fill="#000000" font-family="Verdana" font-size="12" lengthAdjust="spacing" textLength="130.4063" x="134.6309" y="465.6416">Decompress bzImage</text><text fill="#000000" font-family="Verdana" font-size="12" lengthAdjust="spacing" textLength="172.0078" x="134.6309" y="480.2256">Setup protected mode (x86)</text><rect fill="#FFFFFF" height="34.584" rx="12.5" ry="12.5" style="stroke:#000000;stroke-width:1;" width="98.2637" x="165.1748" y="512.7451"/><text fill="#000000" font-family="Verdana" font-size="12" lengthAdjust="spacing" textLength="78.2637" x="175.1748" y="534.8096">4. Early Boot</text><rect fill="#FFFFFF" height="63.752" rx="12.5" ry="12.5" style="stroke:#000000;stroke-width:1;" width="154.6016" x="137.0059" y="567.3291"/><text fill="#000000" font-family="Verdana" font-size="12" lengthAdjust="spacing" textLength="85.0488" x="159.6621" y="589.3936">Enable paging</text><text fill="#000000" font-family="Verdana" font-size="12" lengthAdjust="spacing" textLength="92.4551" x="159.6621" y="603.9775">Setup GDT/IDT</text><text fill="#000000" font-family="Verdana" font-size="12" lengthAdjust="spacing" textLength="121.9453" x="159.6621" y="618.5615">Early memory setup</text><rect fill="#FFFFFF" height="34.584" rx="12.5" ry="12.5" style="stroke:#000000;stroke-width:1;" width="120.1836" x="154.2148" y="651.0811"/><text fill="#000000" font-family="Verdana" font-size="12" lengthAdjust="spacing" textLength="100.1836" x="164.2148" y="673.1455">5. start_kernel()</text><rect fill="#FFFFFF" height="78.3359" rx="12.5" ry="12.5" style="stroke:#000000;stroke-width:1;" width="177.8457" x="125.3838" y="705.665"/><text fill="#000000" font-family="Verdana" font-size="12" lengthAdjust="spacing" textLength="135.9961" x="148.04" y="727.7295">Call architecture setup</text><text fill="#000000" font-family="Verdana" font-size="12" lengthAdjust="spacing" textLength="145.1895" x="148.04" y="742.3135">Initialize memory mgmt</text><text fill="#000000" font-family="Verdana" font-size="12" lengthAdjust="spacing" textLength="110.0977" x="148.04" y="756.8975">Setup subsystems</text><text fill="#000000" font-family="Verdana" font-size="12" lengthAdjust="spacing" textLength="98.9355" x="148.04" y="771.4814">Register initcalls</text><rect fill="#000000" height="6" rx="2.5" ry="2.5" style="stroke:#000000;stroke-width:1;" width="408.6133" x="11" y="804.001"/><rect fill="#FFFFFF" height="34.584" rx="12.5" ry="12.5" style="stroke:#000000;stroke-width:1;" width="153.1836" x="39.7813" y="830.001"/><text fill="#000000" font-family="Verdana" font-size="12" lengthAdjust="spacing" textLength="133.1836" x="49.7813" y="852.0654">6a. Initcalls Execution</text><rect fill="#FFFFFF" height="63.752" rx="12.5" ry="12.5" style="stroke:#000000;stroke-width:1;" width="186.7461" x="23" y="884.585"/><text fill="#000000" font-family="Verdana" font-size="12" lengthAdjust="spacing" textLength="166.7461" x="33" y="906.6494">pure_initcall &#8594; core_initcall</text><text fill="#000000" font-family="Verdana" font-size="12" lengthAdjust="spacing" textLength="103.7285" x="33" y="921.2334">&#8594; subsys_initcall</text><text fill="#000000" font-family="Verdana" font-size="12" lengthAdjust="spacing" textLength="101.2207" x="33" y="935.8174">&#8594; device_initcall</text><rect fill="#FFFFFF" height="34.584" rx="12.5" ry="12.5" style="stroke:#000000;stroke-width:1;" width="163.3086" x="240.0254" y="830.001"/><text fill="#000000" font-family="Verdana" font-size="12" lengthAdjust="spacing" textLength="143.3086" x="250.0254" y="852.0654">6b. Device Tree Parsing</text><rect fill="#FFFFFF" height="63.752" rx="12.5" ry="12.5" style="stroke:#000000;stroke-width:1;" width="167.8672" x="237.7461" y="884.585"/><text fill="#000000" font-family="Verdana" font-size="12" lengthAdjust="spacing" textLength="91.7988" x="247.7461" y="906.6494">Parse DTB blob</text><text fill="#000000" font-family="Verdana" font-size="12" lengthAdjust="spacing" textLength="147.8672" x="247.7461" y="921.2334">Create device_node tree</text><text fill="#000000" font-family="Verdana" font-size="12" lengthAdjust="spacing" textLength="147.252" x="247.7461" y="935.8174">Create platform_devices</text><rect fill="#000000" height="6" rx="2.5" ry="2.5" style="stroke:#000000;stroke-width:1;" width="408.6133" x="11" y="968.3369"/><rect fill="#FFFFFF" height="34.584" rx="12.5" ry="12.5" style="stroke:#000000;stroke-width:1;" width="166.707" x="130.9531" y="994.3369"/><text fill="#000000" font-family="Verdana" font-size="12" lengthAdjust="spacing" textLength="146.707" x="140.9531" y="1016.4014">7. Platform Driver Probe</text><rect fill="#FFFFFF" height="78.3359" rx="12.5" ry="12.5" style="stroke:#000000;stroke-width:1;" width="177.2832" x="125.665" y="1048.9209"/><text fill="#000000" font-family="Verdana" font-size="12" lengthAdjust="spacing" textLength="99.8086" x="148.3213" y="1070.9854">For each device:</text><text fill="#000000" font-family="Verdana" font-size="12" lengthAdjust="spacing" textLength="144.627" x="148.3213" y="1085.5693">Match compatible string</text><text fill="#000000" font-family="Verdana" font-size="12" lengthAdjust="spacing" textLength="124.5703" x="148.3213" y="1100.1533">Call probe() function</text><text fill="#000000" font-family="Verdana" font-size="12" lengthAdjust="spacing" textLength="112.1191" x="148.3213" y="1114.7373">Initialize hardware</text><polygon fill="#FFFFFF" points="186.0359,1147.2568,242.5774,1147.2568,254.5774,1159.2568,242.5774,1171.2568,186.0359,1171.2568,174.0359,1159.2568,186.0359,1147.2568" style="stroke:#000000;stroke-width:1;stroke-linejoin:miter;stroke-miterlimit:10;"/><text fill="#000000" font-family="Verdana" font-size="11" lengthAdjust="spacing" textLength="56.5415" x="186.0359" y="1163.6316">Initramfs?</text><text fill="#000000" font-family="Verdana" font-size="11" lengthAdjust="spacing" textLength="18.7935" x="155.2424" y="1156.9473">yes</text><text fill="#000000" font-family="Verdana" font-size="11" lengthAdjust="spacing" textLength="13.6372" x="254.5774" y="1156.9473">no</text><rect fill="#FFFFFF" height="34.584" rx="12.5" ry="12.5" style="stroke:#000000;stroke-width:1;" width="140.0879" x="68.1636" y="1181.2568"/><text fill="#000000" font-family="Verdana" font-size="12" lengthAdjust="spacing" textLength="120.0879" x="78.1636" y="1203.3213">8a. Mount Initramfs</text><rect fill="#FFFFFF" height="78.3359" rx="12.5" ry="12.5" style="stroke:#000000;stroke-width:1;" width="153.0605" x="61.6772" y="1235.8408"/><text fill="#000000" font-family="Verdana" font-size="12" lengthAdjust="spacing" textLength="113.4785" x="71.6772" y="1257.9053">Execute /init script</text><text fill="#000000" font-family="Verdana" font-size="12" lengthAdjust="spacing" textLength="133.0605" x="71.6772" y="1272.4893">Load modules for root</text><text fill="#000000" font-family="Verdana" font-size="12" lengthAdjust="spacing" textLength="92.9355" x="71.6772" y="1287.0732">Mount real root</text><text fill="#000000" font-family="Verdana" font-size="12" lengthAdjust="spacing" textLength="61.9277" x="71.6772" y="1301.6572">pivot_root</text><rect fill="#FFFFFF" height="34.584" rx="12.5" ry="12.5" style="stroke:#000000;stroke-width:1;" width="111.3359" x="234.7378" y="1181.2568"/><text fill="#000000" font-family="Verdana" font-size="12" lengthAdjust="spacing" textLength="91.3359" x="244.7378" y="1203.3213">8b. Direct Root</text><rect fill="#FFFFFF" height="34.584" rx="12.5" ry="12.5" style="stroke:#000000;stroke-width:1;" width="85.4316" x="247.6899" y="1235.8408"/><text fill="#000000" font-family="Verdana" font-size="12" lengthAdjust="spacing" textLength="65.4316" x="257.6899" y="1257.9053">Skip to init</text><polygon fill="#FFFFFF" points="214.3066,1320.1768,226.3066,1332.1768,214.3066,1344.1768,202.3066,1332.1768,214.3066,1320.1768" style="stroke:#000000;stroke-width:1;stroke-linejoin:miter;stroke-miterlimit:10;"/><rect fill="#FFFFFF" height="34.584" rx="12.5" ry="12.5" style="stroke:#000000;stroke-width:1;" width="157.1563" x="135.7285" y="1364.1768"/><text fill="#000000" font-family="Verdana" font-size="12" lengthAdjust="spacing" textLength="137.1563" x="145.7285" y="1386.2412">9. Execute Init (PID 1)</text><rect fill="#FFFFFF" height="34.584" rx="12.5" ry="12.5" style="stroke:#000000;stroke-width:1;" width="158.5508" x="135.0313" y="1418.7607"/><text fill="#000000" font-family="Verdana" font-size="12" lengthAdjust="spacing" textLength="125.8945" x="157.6875" y="1440.8252">/sbin/init or systemd</text><rect fill="#FFFFFF" height="34.584" rx="12.5" ry="12.5" style="stroke:#000000;stroke-width:1;" width="145.5723" x="141.5205" y="1473.3447"/><text fill="#000000" font-family="Verdana" font-size="12" lengthAdjust="spacing" textLength="125.5723" x="151.5205" y="1495.4092">10. Init System Boot</text><rect fill="#FFFFFF" height="78.3359" rx="12.5" ry="12.5" style="stroke:#000000;stroke-width:1;" width="141.5469" x="143.5332" y="1527.9287"/><text fill="#000000" font-family="Verdana" font-size="12" lengthAdjust="spacing" textLength="82.7754" x="166.1895" y="1549.9932">Start services</text><text fill="#000000" font-family="Verdana" font-size="12" lengthAdjust="spacing" textLength="108.8906" x="166.1895" y="1564.5771">Mount filesystems</text><text fill="#000000" font-family="Verdana" font-size="12" lengthAdjust="spacing" textLength="106.5293" x="166.1895" y="1579.1611">Setup networking</text><text fill="#000000" font-family="Verdana" font-size="12" lengthAdjust="spacing" textLength="108.6152" x="166.1895" y="1593.7451">Start user session</text><rect fill="#FFFFFF" height="34.584" rx="12.5" ry="12.5" style="stroke:#000000;stroke-width:1;" width="159.1895" x="134.7119" y="1626.2646"/><text fill="#000000" font-family="Verdana" font-size="12" lengthAdjust="spacing" textLength="139.1895" x="144.7119" y="1648.3291">11. Userspace Running</text><rect fill="#FFFFFF" height="49.168" rx="12.5" ry="12.5" style="stroke:#000000;stroke-width:1;" width="153.0957" x="137.7588" y="1680.8486"/><text fill="#000000" font-family="Verdana" font-size="12" lengthAdjust="spacing" textLength="110.625" x="160.415" y="1702.9131">Applications ready</text><text fill="#000000" font-family="Verdana" font-size="12" lengthAdjust="spacing" textLength="120.4395" x="160.415" y="1717.4971">System fully booted</text><path d="M245.3066,1740.0166 L245.3066,1764.7156 L225.3066,1768.7156 L245.3066,1772.7156 L245.3066,1797.4146 A0,0 0 0 0 245.3066,1797.4146 L486.3164,1797.4146 A0,0 0 0 0 486.3164,1797.4146 L486.3164,1750.0166 L476.3164,1740.0166 L245.3066,1740.0166 A0,0 0 0 0 245.3066,1740.0166" fill="#FFFFFF" style="stroke:#000000;stroke-width:1;"/><path d="M476.3164,1740.0166 L476.3164,1750.0166 L486.3164,1750.0166 L476.3164,1740.0166" fill="#FFFFFF" style="stroke:#000000;stroke-width:1;"/><text fill="#000000" font-family="Verdana" font-size="13" lengthAdjust="spacing" textLength="197.6406" x="251.3066" y="1758.0864">Total boot time: 1-60 seconds</text><text fill="#000000" font-family="Verdana" font-size="13" lengthAdjust="spacing" textLength="220.0098" x="251.3066" y="1773.8857">depending on system complexity,</text><text fill="#000000" font-family="Verdana" font-size="13" lengthAdjust="spacing" textLength="184.6152" x="251.3066" y="1789.6851">device count, and init config</text><ellipse cx="214.3066" cy="1768.7156" fill="none" rx="11" ry="11" style="stroke:#000000;stroke-width:1;"/><ellipse cx="214.3066" cy="1768.7156" fill="#FFFFFF" rx="6" ry="6" style="stroke:#000000;stroke-width:1;"/><line style="stroke:#000000;stroke-width:1;" x1="214.3066" x2="214.3066" y1="77.7373" y2="97.7373"/><polygon fill="#000000" points="210.3066,87.7373,214.3066,97.7373,218.3066,87.7373,214.3066,91.7373" style="stroke:#000000;stroke-width:1;stroke-linejoin:miter;stroke-miterlimit:10;"/><line style="stroke:#000000;stroke-width:1;" x1="214.3066" x2="214.3066" y1="132.3213" y2="152.3213"/><polygon fill="#000000" points="210.3066,142.3213,214.3066,152.3213,218.3066,142.3213,214.3066,146.3213" style="stroke:#000000;stroke-width:1;stroke-linejoin:miter;stroke-miterlimit:10;"/><line style="stroke:#000000;stroke-width:1;" x1="214.3066" x2="214.3066" y1="216.0732" y2="236.0732"/><polygon fill="#000000" points="210.3066,226.0732,214.3066,236.0732,218.3066,226.0732,214.3066,230.0732" style="stroke:#000000;stroke-width:1;stroke-linejoin:miter;stroke-miterlimit:10;"/><line style="stroke:#000000;stroke-width:1;" x1="214.3066" x2="214.3066" y1="270.6572" y2="290.6572"/><polygon fill="#000000" points="210.3066,280.6572,214.3066,290.6572,218.3066,280.6572,214.3066,284.6572" style="stroke:#000000;stroke-width:1;stroke-linejoin:miter;stroke-miterlimit:10;"/><line style="stroke:#000000;stroke-width:1;" x1="214.3066" x2="214.3066" y1="368.9932" y2="388.9932"/><polygon fill="#000000" points="210.3066,378.9932,214.3066,388.9932,218.3066,378.9932,214.3066,382.9932" style="stroke:#000000;stroke-width:1;stroke-linejoin:miter;stroke-miterlimit:10;"/><line style="stroke:#000000;stroke-width:1;" x1="214.3066" x2="214.3066" y1="423.5771" y2="443.5771"/><polygon fill="#000000" points="210.3066,433.5771,214.3066,443.5771,218.3066,433.5771,214.3066,437.5771" style="stroke:#000000;stroke-width:1;stroke-linejoin:miter;stroke-miterlimit:10;"/><line style="stroke:#000000;stroke-width:1;" x1="214.3066" x2="214.3066" y1="492.7451" y2="512.7451"/><polygon fill="#000000" points="210.3066,502.7451,214.3066,512.7451,218.3066,502.7451,214.3066,506.7451" style="stroke:#000000;stroke-width:1;stroke-linejoin:miter;stroke-miterlimit:10;"/><line style="stroke:#000000;stroke-width:1;" x1="214.3066" x2="214.3066" y1="547.3291" y2="567.3291"/><polygon fill="#000000" points="210.3066,557.3291,214.3066,567.3291,218.3066,557.3291,214.3066,561.3291" style="stroke:#000000;stroke-width:1;stroke-linejoin:miter;stroke-miterlimit:10;"/><line style="stroke:#000000;stroke-width:1;" x1="214.3066" x2="214.3066" y1="631.0811" y2="651.0811"/><polygon fill="#000000" points="210.3066,641.0811,214.3066,651.0811,218.3066,641.0811,214.3066,645.0811" style="stroke:#000000;stroke-width:1;stroke-linejoin:miter;stroke-miterlimit:10;"/><line style="stroke:#000000;stroke-width:1;" x1="214.3066" x2="214.3066" y1="685.665" y2="705.665"/><polygon fill="#000000" points="210.3066,695.665,214.3066,705.665,218.3066,695.665,214.3066,699.665" style="stroke:#000000;stroke-width:1;stroke-linejoin:miter;stroke-miterlimit:10;"/><line style="stroke:#000000;stroke-width:1;" x1="116.373" x2="116.373" y1="864.585" y2="884.585"/><polygon fill="#000000" points="112.373,874.585,116.373,884.585,120.373,874.585,116.373,878.585" style="stroke:#000000;stroke-width:1;stroke-linejoin:miter;stroke-miterlimit:10;"/><line style="stroke:#000000;stroke-width:1;" x1="321.6797" x2="321.6797" y1="864.585" y2="884.585"/><polygon fill="#000000" points="317.6797,874.585,321.6797,884.585,325.6797,874.585,321.6797,878.585" style="stroke:#000000;stroke-width:1;stroke-linejoin:miter;stroke-miterlimit:10;"/><line style="stroke:#000000;stroke-width:1;" x1="116.373" x2="116.373" y1="810.001" y2="830.001"/><polygon fill="#000000" points="112.373,820.001,116.373,830.001,120.373,820.001,116.373,824.001" style="stroke:#000000;stroke-width:1;stroke-linejoin:miter;stroke-miterlimit:10;"/><line style="stroke:#000000;stroke-width:1;" x1="321.6797" x2="321.6797" y1="810.001" y2="830.001"/><polygon fill="#000000" points="317.6797,820.001,321.6797,830.001,325.6797,820.001,321.6797,824.001" style="stroke:#000000;stroke-width:1;stroke-linejoin:miter;stroke-miterlimit:10;"/><line style="stroke:#000000;stroke-width:1;" x1="116.373" x2="116.373" y1="948.3369" y2="968.3369"/><polygon fill="#000000" points="112.373,958.3369,116.373,968.3369,120.373,958.3369,116.373,962.3369" style="stroke:#000000;stroke-width:1;stroke-linejoin:miter;stroke-miterlimit:10;"/><line style="stroke:#000000;stroke-width:1;" x1="321.6797" x2="321.6797" y1="948.3369" y2="968.3369"/><polygon fill="#000000" points="317.6797,958.3369,321.6797,968.3369,325.6797,958.3369,321.6797,962.3369" style="stroke:#000000;stroke-width:1;stroke-linejoin:miter;stroke-miterlimit:10;"/><line style="stroke:#000000;stroke-width:1;" x1="214.3066" x2="214.3066" y1="784.001" y2="804.001"/><polygon fill="#000000" points="210.3066,794.001,214.3066,804.001,218.3066,794.001,214.3066,798.001" style="stroke:#000000;stroke-width:1;stroke-linejoin:miter;stroke-miterlimit:10;"/><line style="stroke:#000000;stroke-width:1;" x1="214.3066" x2="214.3066" y1="974.3369" y2="994.3369"/><polygon fill="#000000" points="210.3066,984.3369,214.3066,994.3369,218.3066,984.3369,214.3066,988.3369" style="stroke:#000000;stroke-width:1;stroke-linejoin:miter;stroke-miterlimit:10;"/><line style="stroke:#000000;stroke-width:1;" x1="214.3066" x2="214.3066" y1="1028.9209" y2="1048.9209"/><polygon fill="#000000" points="210.3066,1038.9209,214.3066,1048.9209,218.3066,1038.9209,214.3066,1042.9209" style="stroke:#000000;stroke-width:1;stroke-linejoin:miter;stroke-miterlimit:10;"/><line style="stroke:#000000;stroke-width:1;" x1="138.2075" x2="138.2075" y1="1215.8408" y2="1235.8408"/><polygon fill="#000000" points="134.2075,1225.8408,138.2075,1235.8408,142.2075,1225.8408,138.2075,1229.8408" style="stroke:#000000;stroke-width:1;stroke-linejoin:miter;stroke-miterlimit:10;"/><line style="stroke:#000000;stroke-width:1;" x1="290.4058" x2="290.4058" y1="1215.8408" y2="1235.8408"/><polygon fill="#000000" points="286.4058,1225.8408,290.4058,1235.8408,294.4058,1225.8408,290.4058,1229.8408" style="stroke:#000000;stroke-width:1;stroke-linejoin:miter;stroke-miterlimit:10;"/><line style="stroke:#000000;stroke-width:1;" x1="174.0359" x2="138.2075" y1="1159.2568" y2="1159.2568"/><line style="stroke:#000000;stroke-width:1;" x1="138.2075" x2="138.2075" y1="1159.2568" y2="1181.2568"/><polygon fill="#000000" points="134.2075,1171.2568,138.2075,1181.2568,142.2075,1171.2568,138.2075,1175.2568" style="stroke:#000000;stroke-width:1;stroke-linejoin:miter;stroke-miterlimit:10;"/><line style="stroke:#000000;stroke-width:1;" x1="254.5774" x2="290.4058" y1="1159.2568" y2="1159.2568"/><line style="stroke:#000000;stroke-width:1;" x1="290.4058" x2="290.4058" y1="1159.2568" y2="1181.2568"/><polygon fill="#000000" points="286.4058,1171.2568,290.4058,1181.2568,294.4058,1171.2568,290.4058,1175.2568" style="stroke:#000000;stroke-width:1;stroke-linejoin:miter;stroke-miterlimit:10;"/><line style="stroke:#000000;stroke-width:1;" x1="138.2075" x2="138.2075" y1="1314.1768" y2="1332.1768"/><line style="stroke:#000000;stroke-width:1;" x1="138.2075" x2="202.3066" y1="1332.1768" y2="1332.1768"/><polygon fill="#000000" points="192.3066,1328.1768,202.3066,1332.1768,192.3066,1336.1768,196.3066,1332.1768" style="stroke:#000000;stroke-width:1;stroke-linejoin:miter;stroke-miterlimit:10;"/><line style="stroke:#000000;stroke-width:1;" x1="290.4058" x2="290.4058" y1="1270.4248" y2="1332.1768"/><line style="stroke:#000000;stroke-width:1;" x1="290.4058" x2="226.3066" y1="1332.1768" y2="1332.1768"/><polygon fill="#000000" points="236.3066,1328.1768,226.3066,1332.1768,236.3066,1336.1768,232.3066,1332.1768" style="stroke:#000000;stroke-width:1;stroke-linejoin:miter;stroke-miterlimit:10;"/><line style="stroke:#000000;stroke-width:1;" x1="214.3066" x2="214.3066" y1="1127.2568" y2="1147.2568"/><polygon fill="#000000" points="210.3066,1137.2568,214.3066,1147.2568,218.3066,1137.2568,214.3066,1141.2568" style="stroke:#000000;stroke-width:1;stroke-linejoin:miter;stroke-miterlimit:10;"/><line style="stroke:#000000;stroke-width:1;" x1="214.3066" x2="214.3066" y1="1344.1768" y2="1364.1768"/><polygon fill="#000000" points="210.3066,1354.1768,214.3066,1364.1768,218.3066,1354.1768,214.3066,1358.1768" style="stroke:#000000;stroke-width:1;stroke-linejoin:miter;stroke-miterlimit:10;"/><line style="stroke:#000000;stroke-width:1;" x1="214.3066" x2="214.3066" y1="1398.7607" y2="1418.7607"/><polygon fill="#000000" points="210.3066,1408.7607,214.3066,1418.7607,218.3066,1408.7607,214.3066,1412.7607" style="stroke:#000000;stroke-width:1;stroke-linejoin:miter;stroke-miterlimit:10;"/><line style="stroke:#000000;stroke-width:1;" x1="214.3066" x2="214.3066" y1="1453.3447" y2="1473.3447"/><polygon fill="#000000" points="210.3066,1463.3447,214.3066,1473.3447,218.3066,1463.3447,214.3066,1467.3447" style="stroke:#000000;stroke-width:1;stroke-linejoin:miter;stroke-miterlimit:10;"/><line style="stroke:#000000;stroke-width:1;" x1="214.3066" x2="214.3066" y1="1507.9287" y2="1527.9287"/><polygon fill="#000000" points="210.3066,1517.9287,214.3066,1527.9287,218.3066,1517.9287,214.3066,1521.9287" style="stroke:#000000;stroke-width:1;stroke-linejoin:miter;stroke-miterlimit:10;"/><line style="stroke:#000000;stroke-width:1;" x1="214.3066" x2="214.3066" y1="1606.2646" y2="1626.2646"/><polygon fill="#000000" points="210.3066,1616.2646,214.3066,1626.2646,218.3066,1616.2646,214.3066,1620.2646" style="stroke:#000000;stroke-width:1;stroke-linejoin:miter;stroke-miterlimit:10;"/><line style="stroke:#000000;stroke-width:1;" x1="214.3066" x2="214.3066" y1="1660.8486" y2="1680.8486"/><polygon fill="#000000" points="210.3066,1670.8486,214.3066,1680.8486,218.3066,1670.8486,214.3066,1674.8486" style="stroke:#000000;stroke-width:1;stroke-linejoin:miter;stroke-miterlimit:10;"/><line style="stroke:#000000;stroke-width:1;" x1="214.3066" x2="214.3066" y1="1730.0166" y2="1757.7156"/><polygon fill="#000000" points="210.3066,1747.7156,214.3066,1757.7156,218.3066,1747.7156,214.3066,1751.7156" style="stroke:#000000;stroke-width:1;stroke-linejoin:miter;stroke-miterlimit:10;"/><?plantuml-src xLVDSjis4BxpARQNZZoJofRJk8cIQMj9TgAfdMWifJrwG78beG815W1jAvvS-m1zn3v9Tm5IFxQR9euFFTWpzfYBtMyNttvOaD_uEHO8fH9I9rvwXT0tHQdG8vn8NLr1pnWFO_oZGfrXaZWlh4-wdJQCp2LQUAVXMpYMjhWK5bycNG3e3T-DTzyV7Gz1QkcbKFA3yDBeXDPEiJ1s2JdXPurjr1y2wgf06znU9abtlntoAYDoj17rzTdxtZwmnS42hKR5iIVqJ6WNCaFm5X5QxTodEwibhi2AOkgWPKf65oeiZeHpaFBMIa7hL8vrdFXf6tu9u330Z8Ymw5oeYKjOco3zC2p431bgZBugeRI6juGv52QdCgwU7-mmuFTjE19MBSD-8ioH5YdnN8gPrBCrmkl1P7SucB0XHXIHAyUh3FMi3O7zyxZzraw4wmkbGDXiBhc0ocACO9nXmpysOCMiyEkKhahTqdai7DlES2RfmGRICa9bHgR6BcYnUo3Q0IxOuUWAioesYzPAIdhU1C7VV_u5cTcma0lROhARrjYxbVLbI0XYndhaj6cRQ0_jdN1xHy8wOYsavVyH1fCUfCgaPEbR5AJR6b9p7rWJwnMIkIVyuZowqFvGvn2sc7H_84dNwp2myeA865cJrg8-DXPGPFCQlHl4B3mPM1CaN6wfyxPkQMXAoU6j7PXMUYNsZPRCXStZgKda55h3Hge_xG2TIWsj9JeMQ_SvSNzgAkrXvHC8Y5r0s6Nsm6LMbjpS87nIOQNGyUR0alJ87Y682TLOIdbX_BaDoaH5PBQqYHcPTcb9Jt0MLiasNiWIl0dg2CJ9AR7seWrD6LmSj4R30NHgQUwwLEfO7PKHfPQpb3jxKKqm3hQDmp5cXPE2RMXGO3cKFPMqcxLMetur-ajgNdECGcX5iHHV7rjAHQFgFTbSAKX4PvNMGJ-Swx0ibSp2q77CIxuCCB6aQQNe3FA8G2xPULCcYQOdi78sP_OcnXELOOXuMM0NEjyTx57gpEYSYyonP9Rq38okDn_4el1A-kMJu16KdV4Edu3GSLxHivxAMT0c9qn-fl-IvkULyqk5Fr8qzmskkMJeYMmnimIJzuqYgYzv68ILOwDzjAMAd5QsjpJqu5UqkT0Y6DyiIxGqyXUDTnK1o8Gt0TWscSjieNaMTeBjL5YQP_2C7Zxoran64rqt1MOYJD_wwIR2Nh1-37-dpBZz3CSvykNm6OxnMclyUFDZFdxx-_yHoRzXY5pN6xoIHLNy9dC_XwTxUxK7tHzUPh8KgxqsJ40dOer47bJmh2RdrMxTmiIHTCFz0uVMciiJevGiJRb9zzhbxXwlrmSu5PNojvfxo-FKQ1DEGxxoxPlAIhGRlYToYeg86TEyyJXR4XFEA9blk3Gl1UpA7FQCfORSNVnuBd9poInC1GsQZHKwcptqOioKqBYkS8iMcfiNT5W2i_ycyfwmsmAzNSXTv-0MKHytoUOqmiR4DsEt7Q-2pwh9MwjzQJE5UPz6lSWQMN-YbAOFT1cBN5OENcp3ANvj-IGNNx_raEJGqrMMybI_lYV2cBQBnjDKkG_4yNeAV67ac_LO-D98de2a-KK8tXY3cqv36iuZ0gENlostMdbtjkLMFBrT2FyrySsxvhqHgfHkldk5lpNt4yMxz7T-dRY-KwIRZfliFe2SwQsWBlZppynsVAFZmmT1wJy8oj63e0mV1ENjLw3GzEyBXn5iyaN3ul5hzV5hzV5hzV5hzV5hzV_ujTffx-_j7xGF_W40?></g></svg>